<svg id="visual" viewBox="0 0 900 600" width="900" height="600" xmlns="http://www.w3.org/2000/svg" xmlns:xlink="http://www.w3.org/1999/xlink" version="1.1"><rect x="0" y="0" width="900" height="600" fill="#806C74"></rect><path d="M0 239L15 255C30 271 60 303 90 321.2C120 339.3 150 343.7 180 322.8C210 302 240 256 270 251.2C300 246.3 330 282.7 360 288.8C390 295 420 271 450 272C480 273 510 299 540 306C570 313 600 301 630 286C660 271 690 253 720 250.3C750 247.7 780 260.3 810 264.5C840 268.7 870 264.3 885 262.2L900 260L900 601L885 601C870 601 840 601 810 601C780 601 750 601 720 601C690 601 660 601 630 601C600 601 570 601 540 601C510 601 480 601 450 601C420 601 390 601 360 601C330 601 300 601 270 601C240 601 210 601 180 601C150 601 120 601 90 601C60 601 30 601 15 601L0 601Z" fill="#ffe8d6"></path><path d="M0 321L15 328C30 335 60 349 90 356.7C120 364.3 150 365.7 180 360C210 354.3 240 341.7 270 325.5C300 309.3 330 289.7 360 293.5C390 297.3 420 324.7 450 325.7C480 326.7 510 301.3 540 293.5C570 285.7 600 295.3 630 302.8C660 310.3 690 315.7 720 325.7C750 335.7 780 350.3 810 339.2C840 328 870 291 885 272.5L900 254L900 601L885 601C870 601 840 601 810 601C780 601 750 601 720 601C690 601 660 601 630 601C600 601 570 601 540 601C510 601 480 601 450 601C420 601 390 601 360 601C330 601 300 601 270 601C240 601 210 601 180 601C150 601 120 601 90 601C60 601 30 601 15 601L0 601Z" fill="#e1dec7"></path><path d="M0 430L15 422C30 414 60 398 90 382.3C120 366.7 150 351.3 180 347.8C210 344.3 240 352.7 270 365.8C300 379 330 397 360 392.7C390 388.3 420 361.7 450 368.2C480 374.7 510 414.3 540 431C570 447.7 600 441.3 630 439C660 436.7 690 438.3 720 426.5C750 414.7 780 389.3 810 374.8C840 360.3 870 356.7 885 354.8L900 353L900 601L885 601C870 601 840 601 810 601C780 601 750 601 720 601C690 601 660 601 630 601C600 601 570 601 540 601C510 601 480 601 450 601C420 601 390 601 360 601C330 601 300 601 270 601C240 601 210 601 180 601C150 601 120 601 90 601C60 601 30 601 15 601L0 601Z" fill="#c3d4c1"></path><path d="M0 503L15 489.5C30 476 60 449 90 442.7C120 436.3 150 450.7 180 454.5C210 458.3 240 451.7 270 443.2C300 434.7 330 424.3 360 434.7C390 445 420 476 450 486.8C480 497.7 510 488.3 540 485.3C570 482.3 600 485.7 630 478.3C660 471 690 453 720 447.3C750 441.7 780 448.3 810 451.8C840 455.3 870 455.7 885 455.8L900 456L900 601L885 601C870 601 840 601 810 601C780 601 750 601 720 601C690 601 660 601 630 601C600 601 570 601 540 601C510 601 480 601 450 601C420 601 390 601 360 601C330 601 300 601 270 601C240 601 210 601 180 601C150 601 120 601 90 601C60 601 30 601 15 601L0 601Z" fill="#a9c8c0"></path><path d="M0 488L15 489.5C30 491 60 494 90 493.7C120 493.3 150 489.7 180 500.5C210 511.3 240 536.7 270 536.3C300 536 330 510 360 498.5C390 487 420 490 450 502.3C480 514.7 510 536.3 540 536.2C570 536 600 514 630 512.2C660 510.3 690 528.7 720 533.3C750 538 780 529 810 524.7C840 520.3 870 520.7 885 520.8L900 521L900 601L885 601C870 601 840 601 810 601C780 601 750 601 720 601C690 601 660 601 630 601C600 601 570 601 540 601C510 601 480 601 450 601C420 601 390 601 360 601C330 601 300 601 270 601C240 601 210 601 180 601C150 601 120 601 90 601C60 601 30 601 15 601L0 601Z" fill="#99b9bf"></path></svg>